<?xml version="1.0" encoding="utf-8"?>
<!-- Generator: Adobe Illustrator 21.1.0, SVG Export Plug-In . SVG Version: 6.00 Build 0)  -->
<svg version="1.1" id="Layer_1" xmlns="http://www.w3.org/2000/svg" xmlns:xlink="http://www.w3.org/1999/xlink" x="0px" y="0px"
	 viewBox="0 0 800 800" style="enable-background:new 0 0 800 800;" xml:space="preserve">
<style type="text/css">
	.st0{fill:none;stroke:#524E4E;stroke-width:2;stroke-miterlimit:10;}
	.st1{fill:#FBC342;}
	.st2{fill:none;stroke:#FBC342;stroke-width:3;stroke-miterlimit:10;}
	.st3{fill:#524E4E;}
	.st4{fill:#FFFFFF;}
	.st5{fill:none;stroke:#524E4E;stroke-width:2;stroke-linejoin:round;stroke-miterlimit:10;}
	.st6{fill:none;stroke:#FBC342;stroke-width:2;stroke-linecap:round;stroke-miterlimit:10;}
	.st7{fill:none;stroke:#FBC342;stroke-width:2;stroke-miterlimit:10;}
	.st8{fill:#FFFFFF;stroke:#524E4E;stroke-width:2;stroke-miterlimit:10;}
	.st9{fill:none;stroke:#FBC342;stroke-width:2;stroke-linecap:square;stroke-miterlimit:10;}
	.st10{fill:#7FC15D;}
	.st11{fill:none;stroke:#FBC342;stroke-width:3;stroke-linecap:round;stroke-miterlimit:10;}
	.st12{fill:#3A3939;}
	.st13{fill:#393939;}
	.st14{fill:none;stroke:#524E4E;stroke-width:2;stroke-linecap:round;stroke-miterlimit:10;}
	.st15{fill:#FAA242;}
	.st16{fill:#FA8742;}
	.st17{fill:#128DDD;}
	.st18{fill:#15A9BB;}
	.st19{fill:#68B541;}
	.st20{fill:#FAC242;}
	.st21{fill:#E1E1E1;}
	.st22{fill:none;stroke:#FFFFFF;stroke-width:4;stroke-linecap:round;stroke-linejoin:round;stroke-miterlimit:10;}
	.st23{fill:#E92424;}
	.st24{fill:none;stroke:#DBDBDB;stroke-width:2.5;stroke-linecap:round;stroke-miterlimit:10;}
	.st25{fill:none;stroke:#DBDBDB;stroke-width:2.5;stroke-miterlimit:10;}
	.st26{fill:none;stroke:#3A3939;stroke-width:2;stroke-miterlimit:10;}
	.st27{fill:none;stroke:#DBDBDB;stroke-width:2;stroke-linecap:round;stroke-miterlimit:10;}
	.st28{fill:#DBDBDB;}
	.st29{fill:none;stroke:#FAC242;stroke-width:1.5;stroke-linecap:round;stroke-linejoin:round;stroke-miterlimit:10;}
	.st30{fill:none;stroke:#FAC242;stroke-width:1.5;stroke-linecap:round;stroke-miterlimit:10;}
	.st31{fill:none;stroke:#DBDBDB;stroke-width:1.5;stroke-linecap:round;stroke-linejoin:round;stroke-miterlimit:10;}
	.st32{fill:none;stroke:#DBDBDB;stroke-width:1.5;stroke-linecap:round;stroke-miterlimit:10;}
	.st33{fill:none;stroke:#FB9142;stroke-width:1.5;stroke-linecap:round;stroke-linejoin:round;stroke-miterlimit:10;}
	.st34{fill:#FB9142;}
	.st35{fill:none;stroke:#939393;stroke-linecap:square;stroke-linejoin:round;stroke-miterlimit:10;}
	.st36{fill:#939393;}
	.st37{fill:none;stroke:#959595;stroke-width:2;stroke-linecap:round;stroke-miterlimit:10;}
	.st38{fill:#959595;}
	.st39{fill:#FFFFFF;stroke:#DBDBDB;stroke-linejoin:round;stroke-miterlimit:10;}
	.st40{fill:none;stroke:#E92424;stroke-width:2;stroke-linecap:round;stroke-linejoin:round;stroke-miterlimit:10;}
	.st41{fill:none;stroke:#FBC342;stroke-width:2;stroke-linecap:round;stroke-linejoin:round;stroke-miterlimit:10;}
	.st42{fill:none;stroke:#68B541;stroke-width:2;stroke-linecap:round;stroke-miterlimit:10;}
	.st43{fill:none;stroke:#4786E2;stroke-width:2;stroke-linecap:round;stroke-linejoin:round;stroke-miterlimit:10;}
	.st44{fill:none;stroke:#7FC15D;stroke-width:2;stroke-linecap:round;stroke-linejoin:round;stroke-miterlimit:10;}
	.st45{fill:none;stroke:#FFFFFF;stroke-width:1.5;stroke-linecap:round;stroke-linejoin:round;stroke-miterlimit:10;}
	
		.st46{opacity:0.5;fill:none;stroke:#FFFFFF;stroke-width:1.5;stroke-linecap:round;stroke-linejoin:round;stroke-miterlimit:10;enable-background:new    ;}
	
		.st47{opacity:0.2;fill:none;stroke:#FFFFFF;stroke-width:1.5;stroke-linecap:round;stroke-linejoin:round;stroke-miterlimit:10;enable-background:new    ;}
	.st48{fill:none;stroke:#C6C6C6;stroke-width:2;stroke-linecap:round;stroke-linejoin:round;stroke-miterlimit:10;}
	.st49{fill:none;stroke:#FAC242;stroke-width:5;stroke-miterlimit:10;}
	.st50{fill:#232323;}
	.st51{fill:#FBC241;}
</style>
<path class="st0" d="M412.7,187c0-3.2,2.3-5.9,5.4-6.4c-1.1-1.3-1.7-2.9-1.7-4.7c0-4,3.2-7.2,7.2-7.2c0.8,0,1.5,0.1,2.2,0.3
	c-1.4-8.9-9-15.6-18.3-15.6c-10.4,0-18.6,8.2-18.6,18.6c0,10.4,8.2,18.6,18.6,18.6c2.1,0,4-0.3,5.9-0.9
	C412.9,188.9,412.7,188,412.7,187z"/>
<path class="st1" d="M48.2,157.1H18.3c-0.9,0-1.6-0.7-1.6-1.6v-1c0-0.9,0.7-1.6,1.6-1.6h29.9c0.9,0,1.6,0.7,1.6,1.6v1
	C49.7,156.3,49,157.1,48.2,157.1z"/>
<path class="st1" d="M48.2,168.9H18.3c-0.9,0-1.6-0.7-1.6-1.6v-1c0-0.9,0.7-1.6,1.6-1.6h29.9c0.9,0,1.6,0.7,1.6,1.6v1
	C49.7,168.2,49,168.9,48.2,168.9z"/>
<path class="st1" d="M48.2,180.8H18.3c-0.9,0-1.6-0.7-1.6-1.6v-1c0-0.9,0.7-1.6,1.6-1.6h29.9c0.9,0,1.6,0.7,1.6,1.6v1
	C49.7,180,49,180.8,48.2,180.8z"/>
<path class="st1" d="M113.8,177.6l-15.3-15.3c-0.5-0.5-0.5-1.2,0-1.6l0.5-0.5c0.5-0.5,1.2-0.5,1.6,0l15.3,15.3
	c0.5,0.5,0.5,1.2,0,1.6l-0.5,0.5C115,177.9,114.2,178,113.8,177.6z"/>
<path class="st1" d="M99,177.6l-0.5-0.5c-0.5-0.5-0.5-1.2,0-1.6l15.3-15.3c0.5-0.5,1.2-0.5,1.6,0l0.5,0.5c0.5,0.5,0.5,1.2,0,1.6
	l-15.3,15.3C100.2,178,99.4,177.9,99,177.6z"/>
<circle class="st2" cx="167.2" cy="168.8" r="13.8"/>
<g>
	<path class="st3" d="M167,177.4c-0.7,0-1.3-0.2-1.8-0.6l-0.1-0.1l-0.6-0.6c-1-1-1.1-2.6-0.1-3.7l13.3-16.3l0.1-0.1
		c0.5-0.5,1.2-0.8,1.9-0.8s1.4,0.3,1.9,0.8l0.5,0.5c1,1,1.1,2.6,0.1,3.7l-13.3,16.3l-0.1,0.1C168.4,177.1,167.8,177.4,167,177.4z"/>
	<path class="st4" d="M179.8,156.8c0.3,0,0.6,0.1,0.8,0.3l0.5,0.5c0.5,0.5,0.5,1.2,0,1.6l-13.3,16.3c-0.2,0.2-0.5,0.3-0.8,0.3
		s-0.6-0.1-0.9-0.3l-0.5-0.5c-0.5-0.5-0.5-1.2,0-1.6l13.3-16.3C179.2,156.9,179.5,156.8,179.8,156.8 M179.8,153.8
		c-1.1,0-2.2,0.4-2.9,1.2l-0.1,0.1l-0.1,0.1l-13.3,16.2c-1.5,1.6-1.4,4.2,0.1,5.7l0.5,0.5l0.1,0.1l0.1,0.1c0.8,0.6,1.7,0.9,2.7,0.9
		c1.1,0,2.1-0.4,2.9-1.2l0.1-0.1l0.1-0.1l13.3-16.2c1.5-1.6,1.4-4.2-0.1-5.7l-0.5-0.5C182,154.2,180.9,153.8,179.8,153.8
		L179.8,153.8z"/>
</g>
<g>
	<path class="st3" d="M159.8,166.6l0.5-0.5c0.5-0.5,1.2-0.5,1.6,0l6.3,7.3c0.5,0.5,0.5,1.2,0,1.6l-0.5,0.5c-0.5,0.5-1.2,0.5-1.6,0
		l-6.3-7.3C159.4,167.8,159.5,167.1,159.8,166.6z"/>
</g>
<g>
	<g>
		<path class="st5" d="M226.8,152.5c-11,0-16,3.2-16,3c0,29,16,29,16,29s16,0,16-29C242.8,155.5,237.8,152.5,226.8,152.5z"/>
	</g>
</g>
<path class="st6" d="M214.8,158.9c0,0,2.4-2,12-2s12,2,12,2"/>
<g>
	<g>
		<circle class="st6" cx="226.8" cy="167.3" r="4"/>
	</g>
</g>
<path class="st7" d="M232.8,178.2c0-3-2.7-5.5-6-5.5s-6,2.5-6,5.5"/>
<g>
	<path class="st0" d="M267.2,162.2h23c1.1,0,2,0.9,2,2v17c0,1.1-0.9,2-2,2h-18c-2.8,0-5-2.2-5-5V162.2z"/>
</g>
<g>
	<path class="st8" d="M289.7,168.2h5.5v9h-5.5c-2.5,0-4.5-2-4.5-4.5S287.2,168.2,289.7,168.2z"/>
</g>
<circle class="st3" cx="289.7" cy="172.7" r="1.6"/>
<line class="st9" x1="267.2" y1="158.2" x2="286.1" y2="158.2"/>
<path id="XMLID_242_" class="st1" d="M280.8,172.7c-0.5-0.4-1.1-0.5-1.1-0.5s0.6-0.3,0.8-0.7c0.2-0.3,0.3-0.8,0.4-1.1
	c0-0.3,0.1-1.4-0.8-2c-0.7-0.5-1.4-0.7-2.5-0.7v-2.2h-1.4v2.2c-0.3,0-0.7,0-1.1,0v-2.2h-1.4v2.2c-1.4,0-2.7,0-2.7,0v1.4
	c0,0,0.6,0,0.8,0c0.2,0,0.6,0,0.8,0.2s0.2,0.3,0.2,0.7s0,5.6,0,5.7c0,0.1,0,0.3-0.1,0.4c-0.1,0.1-0.2,0.1-0.5,0.1s-0.8,0-0.8,0
	l-0.3,1.7c0,0,1.4,0,2.7,0v2.2h1.4v-2.2c0.4,0,0.8,0,1.1,0v2.2h1.4v-2.2c0.4,0,0.7,0,0.9-0.1c0.4,0,1.3-0.2,2.1-0.7
	c0.8-0.6,1-1.5,1-2.4C281.6,173.6,281.2,173,280.8,172.7z M275.1,171.8v-2.7c0,0,0.4,0,0.9,0c0.4,0,0.8,0,1.4,0.2s0.9,0.6,0.9,1.1
	s-0.2,0.8-0.6,1.1c-0.4,0.2-0.9,0.3-1.4,0.3C275.7,171.9,275.1,171.8,275.1,171.8z M278.2,175.8c-0.3,0.2-0.9,0.3-1.6,0.4
	c-0.6,0-1.5,0-1.5,0v-3c0,0,0.9,0,1.6,0s1.3,0.2,1.5,0.3s0.7,0.4,0.7,1.1C278.9,175.3,278.5,175.6,278.2,175.8z"/>
<path class="st10" d="M797.5,80.2c-3.8-10.5-9.2-15.3-13.9-17.2c-5.9-2.6-12-2.1-12-2.1s5.1-4.4,6-8.9c1.2-3.4,0.9-8.6,1.1-11.7
	c-0.8-2.9-2.6-13.9-12.9-17.4c-8.1-3.1-15.4-3.3-26.1-0.5L734.1,1l-13.6,3.6l5.6,21.4c-2.9,0.8-6.8,1.8-10.7,2.8l-5.6-21.4L696.2,11
	l5.6,21.4c-13.6,3.6-26.3,6.9-26.3,6.9l3.6,13.6c0,0,5.8-1.5,7.8-2c1.9-0.5,5.8-1.5,8.3-0.1s2.7,2.4,3.7,6.3s14.2,54.6,14.5,55.5
	c0.3,1,0.8,2.9,0,4.2c-0.7,1.2-1.7,1.5-4.6,2.2c-2.9,0.8-7.8,2-7.8,2l1.4,17.3c0,0,13.6-3.6,26.3-6.9l5.6,21.4l13.6-3.6l-5.6-21.4
	c3.9-1,7.8-2,10.7-2.8l5.6,21.4l13.6-3.6l-5.6-21.4c3.9-1,6.8-1.8,8.5-3.3c3.9-1,12.2-5.3,18.7-12.2C800.1,98.2,799.8,89,797.5,80.2
	z M725.8,68.7l-6.9-26.3c0,0,3.9-1,8.8-2.3c3.9-1,7.8-2,14.1-1.6c6.4,0.4,10.3,3.6,11.6,8.4s0.1,8.3-3,12.2c-3.4,3-8,5.2-12.9,6.5
	C731.9,68.2,725.8,68.7,725.8,68.7z M766.2,99.8c-2.4,2.7-8,5.2-14.6,8c-5.8,1.5-14.6,3.8-14.6,3.8l-7.6-29.2c0,0,8.8-2.3,15.6-4.1
	c6.8-1.8,13.2-1.4,15.4-0.9s7.8,2.1,9.6,8.9C771.7,93.2,768.6,97.1,766.2,99.8z"/>
<polyline class="st11" points="349.1,184.1 336.4,173.2 336.4,158.9 "/>
<line class="st11" x1="323.9" y1="184.1" x2="336.4" y2="173.2"/>
<g>
	<path class="st8" d="M323.9,180.7c1.9,0,3.4,1.5,3.4,3.4s-1.5,3.4-3.4,3.4s-3.4-1.5-3.4-3.4C320.5,182.3,322,180.7,323.9,180.7z"/>
	<path class="st8" d="M349.1,180.7c1.9,0,3.4,1.5,3.4,3.4s-1.5,3.4-3.4,3.4s-3.4-1.5-3.4-3.4C345.7,182.3,347.3,180.7,349.1,180.7z"
		/>
	<path class="st8" d="M336.4,155.5c1.9,0,3.4,1.5,3.4,3.4s-1.5,3.4-3.4,3.4s-3.4-1.5-3.4-3.4S334.5,155.5,336.4,155.5z"/>
	<path class="st8" d="M336.5,168.5c2.8,0,5,2.2,5,5s-2.2,5-5,5s-5-2.2-5-5S333.7,168.5,336.5,168.5z"/>
</g>
<path class="st6" d="M464.2,170.7c0,3.6-2.8,6.4-6.4,6.4c-2,0-3.8-0.9-5-2.3"/>
<path class="st6" d="M451.3,170.7c0-3.6,2.8-6.4,6.4-6.4c2.4,0,4.4,1.2,5.5,3.1"/>
<path class="st0" d="M416.8,165c0,2.4-1.8,4.2-4.2,4.2s-4.2-1.8-4.2-4.2s1.8-4.2,4.2-4.2S416.8,162.7,416.8,165z"/>
<path class="st0" d="M400.6,169.2c0,1.7-1.3,3-3,3s-3-1.3-3-3s1.3-3,3-3C399.3,166.2,400.6,167.5,400.6,169.2z"/>
<path class="st0" d="M411.1,177.7c0,1.7-1.3,3-3,3s-3-1.3-3-3s1.3-3,3-3C409.7,174.7,411.1,176,411.1,177.7z"/>
<polyline class="st0" points="391.9,182.4 398.2,177.1 402.1,177.5 "/>
<polyline class="st0" points="400.3,154.8 404.6,159.7 403.7,163.1 "/>
<polyline class="st8" points="406,190.6 404.6,186.1 398.8,182.8 "/>
<circle class="st0" cx="425.4" cy="177.7" r="1.7"/>
<circle class="st8" cx="421.1" cy="187.1" r="0.8"/>
<circle class="st8" cx="429.1" cy="185.1" r="0.8"/>
<g>
	<polygon class="st12" points="69.8,342.1 69.8,311.4 39.8,324.5 	"/>
	<polygon class="st12" points="69.8,309.2 69.8,273.1 40.7,322 	"/>
	<polygon class="st12" points="71.8,273.1 71.8,309.2 101.3,322.2 	"/>
	<polygon class="st12" points="71.8,311.4 71.8,342.1 101.9,324.5 	"/>
	<polygon class="st12" points="69.8,373.1 69.8,348.3 40,330.8 	"/>
	<polygon class="st12" points="71.8,373.1 101.6,330.8 71.8,348.3 	"/>
</g>
<path class="st12" d="M219.4,321.4c-2.6-1.9-6.3-2.7-6.3-2.7s3.1-1.8,4.4-3.6c1.3-1.8,1.9-4.6,2-6c0.1-1.5,0.4-7.5-4.4-11
	c-3.7-2.7-7.8-3.8-13.5-4.1v-12.3H194v12.1c-1.7,0-3.7,0-5.8,0v-12.1h-7.6v12.1c-7.7,0-14.8,0-14.8,0v7.8c0,0,3.2,0,4.4,0
	s3.3,0.1,4.2,1.1s1.1,1.5,1.1,3.5c0,1.9,0,30.5,0,31.3s-0.2,1.7-0.8,2.3c-0.6,0.6-1.3,0.8-2.8,0.8s-4.5,0-4.5,0l-1.6,9.1
	c0,0,7.4,0,14.8,0v12.1h7.6v-12.1c2.3,0,4.3,0,5.8,0v12.1h7.6v-12.3c1.9-0.1,3.8-0.3,4.9-0.4c2.2-0.3,7-0.9,11.6-4
	c4.5-3.2,5.6-8.2,5.7-13.2C223.8,326.8,221.9,323.4,219.4,321.4z M188.3,316.9v-14.6c0,0,2.4-0.2,4.8-0.2c2.4,0.1,4.4,0.1,7.6,1.1
	c3.1,1,5,3.3,5,6c0.1,2.8-1.1,4.6-3.2,5.8c-2.1,1.2-5,1.8-7.8,1.9C191.9,317,188.3,316.9,188.3,316.9z M205.2,338.4
	c-1.7,1-5.2,1.8-8.5,2.1c-3.3,0.3-8.4,0.2-8.4,0.2v-16.2c0,0,4.8-0.3,8.5,0s6.9,1.2,8.3,1.9c1.4,0.7,3.9,2.3,3.9,6
	C209,336,207,337.5,205.2,338.4z"/>
<path class="st12" d="M330.4,306.3c-8.8,0-17.2,0-25.6,0c0-4.5,0-8.8,0-13.4c5.1,0,10,0,15.2,0c0-3.9,0-7.3,0-11.2
	c4.5,0,8.9,0,13.5,0c0,3.6,0,7.2,0,11.1c5.6,0,11,0,16.4,0c0,4.4,0,8.5,0,12.7c0,0.7-0.5,1.5-0.9,2c-3.9,4.5-7.9,8.9-11.8,13.4
	c-4.5,5.2-8.9,10.6-13.8,16.2c9.1,0,17.8,0,26.6,0c0,4.7,0,8.9,0,13.5c-5.3,0-10.7,0-16.4,0c0.3,3.9,0.4,7.5,0.7,11.2
	c-4.7,0-9.2,0-13.9,0c0-3.6,0-7.2,0-11.1c-5.6,0-11,0-16.6,0c0-4.4,0-8.5,0-12.7c0-0.8,0.5-1.6,1.1-2.1c4.9-5.7,10.2-11.5,15.1-17.2
	C323.3,314.7,326.7,310.7,330.4,306.3z"/>
<g>
	<path class="st13" d="M495.6,351.5c-0.9,0.2-1.3-0.5-1.8-1c-5.1-5-10.1-10.1-15.2-15.2c0-8.8,0-17.6,0-26.6c-9.1,0-18.1,0-27.2,0
		c-5.5-5.5-10.9-10.9-16.4-16.4c0,0,0-0.2,0-0.3c20.2,0,40.4,0,60.6,0C495.6,311.9,495.6,331.7,495.6,351.5z"/>
	<path class="st13" d="M434.5,352c0-7.8,0-15.6,0-23.3c5.8-5.8,11.5-11.5,17.3-17.3h0.1c0.1,0.1,0.1,0.1,0.1,0.2
		c0,7.7,0,15.4,0,23.3c7.7,0.1,15.4,0,23.6,0.1c-0.7,0.8-1,1.3-1.5,1.8c-4.6,4.6-9.2,9.2-13.8,13.8c-0.4,0.4-0.8,1-1.2,1.4
		C451.1,352,442.8,352,434.5,352z"/>
</g>
<g>
	<path class="st13" d="M650.2,296.8c0,16.7,0,33.3,0,50c-15.8,0-31.6,0-47.4,0c0-1.9,0-3.8,0-5.7c-1.6-0.3-3.1-0.5-4.6-0.9
		c-7.2-1.8-12.8-5.9-17.3-11.6c-2.5-3.1-4.5-6.6-6.1-10.3c-0.2-0.5-0.2-0.9,0.3-1.3c5.9-5.2,12.4-9.4,19.9-11.8
		c2.4-0.8,4.9-1.1,7.3-1.6c0.1,0,0.3,0,0.5-0.1c0-2.2,0-4.4,0-6.7C618.6,296.8,634.4,296.8,650.2,296.8z M632.6,317.4
		c-1.4-1.4-2.6-2.8-4-4c-5.8-5.3-12.3-8.9-20.2-9.8c-1.8-0.2-3.7,0-5.5,0c0,1.2,0,2.3,0,3.4c1.8,0.1,3.5,0.1,5.2,0.4
		c6.7,1.2,11.9,4.9,16.2,9.9c0.3,0.4,0.3,0.6,0,1c-2.6,3.2-5.4,6.2-8.9,8.5c-2.9,1.9-5.9,3.3-9.5,3.2c-1,0-2-0.3-3.1-0.4
		c0,0.9,0,1.8,0,2.7c0,0.5,0.2,0.7,0.7,0.8c3.3,0.4,6.5,0.1,9.5-1.1C620.9,329,626.9,323.6,632.6,317.4z M636.1,323.5
		c-3.7,2.7-7.2,5.4-10.9,7.8c-5.5,3.6-11.6,5.7-18.3,5.8c-1.3,0-2.7,0-4.1,0c0,1.2,0,2.4,0,3.6c9.3,1.5,32.9-4.7,41.7-12.4
		C641.6,326.7,638.8,325,636.1,323.5z M602.7,337c0-1.3,0-2.6,0-3.8c0-0.1-0.3-0.3-0.5-0.4c-0.8-0.3-1.6-0.4-2.4-0.7
		c-6.1-2.3-9.6-6.9-11.7-12.9c-0.1-0.2,0.1-0.7,0.3-0.9c3-2.8,6.5-4.9,10.5-6c1.2-0.3,2.5-0.6,3.8-0.8c0-1.4,0-2.9,0-4.4
		c-0.7,0.1-1.4,0.1-2.1,0.2c-7.3,1.2-13.3,4.7-17.9,10.4c-0.2,0.2-0.3,0.8-0.2,1.1c2,5.2,4.9,9.8,9.3,13.4
		C594.9,334.8,598.6,336.4,602.7,337z M611.5,323c2.2-1.8,4.3-3.6,6.4-5.4c-4-4.3-8.7-6.6-14.5-6c-0.2,0-0.5,0.4-0.5,0.6
		c-0.1,0.9-0.1,1.9,0,2.8c0,0.2,0.3,0.6,0.5,0.6c3,0.3,5,2.2,6.5,4.7C610.3,321.2,610.9,322,611.5,323z M602.7,329.2
		c0-4.6,0-9.1,0-13.7c-0.4,0-0.8,0-1.1,0c-2.9,0.2-5.1,1.6-7.1,3.6c-0.2,0.2-0.2,0.7-0.1,0.9c0.6,1.4,1.2,2.8,2,4
		C597.9,326.4,599.9,328.2,602.7,329.2z"/>
</g>
<path class="st1" d="M451.2,172.7h4.7c0.3,0,0.5,0.4,0.3,0.6l-4.7,4.7c-0.2,0.2-0.6,0.1-0.6-0.3V173
	C450.9,172.8,451,172.7,451.2,172.7z"/>
<path class="st1" d="M464.5,168.6h-4.7c-0.3,0-0.5-0.4-0.3-0.6l4.7-4.7c0.2-0.2,0.6-0.1,0.6,0.3v4.7
	C464.9,168.5,464.7,168.6,464.5,168.6z"/>
<path class="st14" d="M492.4,166.1c1.1,1.2,1.9,2.8,1.9,4.6c0,3.6-2.9,6.5-6.5,6.5s-6.5-2.9-6.5-6.5c0-1.8,0.7-3.4,1.9-4.6"/>
<g>
	<path class="st3" d="M487.7,170.5L487.7,170.5c-0.6,0-1-0.5-1-1v-5.8c0-0.5,0.4-1,1-1l0,0c0.5,0,1,0.4,1,1v5.8
		C488.7,170.1,488.3,170.5,487.7,170.5z"/>
</g>
<path class="st4" d="M20.9,446.7h1.9v-3.1h-2.3l0,0c-3.7,0.1-4.4,2.2-4.5,4.3l0,0v2.5h-1.9v3.1H16v9.8h3.8v-9.8h2.8l0.6-3.1h-3.4
	v-2.2C19.8,447.5,20.2,446.7,20.9,446.7z"/>
<path class="st4" d="M65,447.5c-0.4,0.2-1.4,0.6-2.4,0.7c0.6-0.3,1.6-1.5,1.8-2.3c-0.6,0.4-2,1-2.7,1l0,0c-0.8-0.8-1.9-1.3-3.1-1.3
	c-2.4,0-4.3,1.9-4.3,4.3c0,0.3,0,0.7,0.1,1l0,0c-3.2-0.1-6.8-1.7-8.9-4.5c-1.3,2.3-0.2,4.8,1.3,5.7c-0.5,0-1.4-0.1-1.9-0.5
	c0,1.5,0.7,3.5,3.3,4.2c-0.5,0.3-1.4,0.2-1.8,0.1c0.1,1.3,1.9,2.9,3.9,2.9c-0.7,0.8-3.3,2.3-6.2,1.8c2,1.2,4.3,1.9,6.8,1.9
	c7,0,12.4-5.6,12.1-12.6l0,0c0,0,0,0,0-0.1c0,0,0,0,0-0.1C63.5,449.3,64.4,448.6,65,447.5z"/>
<path class="st4" d="M98,455.6c0.7,0.7,1.4,1.3,2,2.1c0.3,0.3,0.5,0.7,0.7,1.1c0.3,0.5,0,1.1-0.5,1.2h-3c-0.8,0.1-1.4-0.3-1.9-0.8
	c-0.4-0.4-0.8-0.9-1.2-1.3c-0.2-0.2-0.3-0.4-0.5-0.5c-0.4-0.3-0.8-0.2-1,0.2c-0.2,0.4-0.3,0.9-0.3,1.4c0,0.7-0.2,0.9-1,0.9
	c-1.5,0.1-3-0.2-4.3-0.9c-1.2-0.7-2.1-1.6-2.9-2.7c-1.6-2.1-2.8-4.5-3.8-6.9c-0.2-0.5-0.1-0.8,0.5-0.8c1,0,2,0,3,0
	c0.4,0,0.7,0.2,0.8,0.6c0.5,1.3,1.2,2.6,2,3.7c0.2,0.3,0.4,0.6,0.8,0.8c0.4,0.2,0.6,0.2,0.8-0.2c0.1-0.2,0.2-0.5,0.2-0.8
	c0.1-0.9,0.1-1.8,0-2.7c-0.1-0.6-0.4-0.9-1-1c-0.3-0.1-0.2-0.2-0.1-0.3c0.2-0.3,0.5-0.5,0.9-0.5h3.4c0.5,0.1,0.7,0.3,0.7,0.9v3.8
	c0,0.2,0.1,0.8,0.5,1c0.3,0.1,0.5-0.1,0.7-0.3c0.8-0.9,1.4-1.9,1.9-3c0.2-0.5,0.4-1,0.6-1.4c0.1-0.4,0.4-0.5,0.8-0.5h3.3
	c0.1,0,0.2,0,0.3,0c0.6,0.1,0.7,0.3,0.5,0.9c-0.3,0.9-0.8,1.6-1.3,2.3c-0.6,0.8-1.1,1.5-1.7,2.3C97.3,454.6,97.4,454.9,98,455.6
	L98,455.6z"/>
<path class="st4" d="M134.6,450.4c-0.6,0-1.2,0.2-1.7,0.5c-1.5-0.9-3.5-1.4-5.5-1.5l1.2-3.5l2.5,0.6c0,0.1,0,0.2,0,0.2
	c0,1.4,1.1,2.5,2.5,2.5s2.5-1.1,2.5-2.5s-1.1-2.5-2.5-2.5c-0.9,0-1.7,0.5-2.1,1.2l-3.6-0.9l-1.7,4.8c-2.1,0.1-4,0.7-5.5,1.6
	c0,0,0.1,0,0.1-0.1c-0.5-0.3-1.1-0.5-1.7-0.5c-1.8,0-3.2,1.5-3.2,3.3c0,1.2,0.7,2.3,1.6,2.9c0.4,3.4,4.5,6.1,9.4,6.1
	c5,0,9.1-2.7,9.5-6.2c0.9-0.6,1.5-1.6,1.5-2.8C137.8,451.9,136.4,450.4,134.6,450.4z M122,454.9c0-0.8,0.7-1.5,1.5-1.5
	s1.5,0.7,1.5,1.5s-0.7,1.5-1.5,1.5S122,455.8,122,454.9z M130.3,459.2c-1.3,0.8-2.5,1.1-3.5,1.1c-2.1,0-3.5-1.1-3.6-1.2
	c-0.2-0.2-0.3-0.5-0.1-0.8c0.2-0.2,0.5-0.3,0.8-0.1c0.1,0.1,2.6,2,5.8,0c0.3-0.2,0.6-0.1,0.8,0.2C130.6,458.6,130.5,459,130.3,459.2
	z M129.9,456.4c-0.8,0-1.5-0.7-1.5-1.5s0.7-1.5,1.5-1.5s1.5,0.7,1.5,1.5S130.7,456.4,129.9,456.4z"/>
<g>
	<path class="st4" d="M169,446.4h-11.7c-2.3,0-4.2,1.9-4.2,4.2v5.8c0,2.3,1.9,4.2,4.2,4.2H169c2.3,0,4.2-1.9,4.2-4.2v-5.8
		C173.1,448.3,171.3,446.4,169,446.4z M166.2,453.8l-5.5,2.6c-0.1,0.1-0.3,0-0.3-0.2v-5.4c0-0.2,0.2-0.3,0.3-0.2l5.5,2.8
		C166.3,453.5,166.3,453.7,166.2,453.8z"/>
</g>
<path class="st4" d="M208.8,454.8c0,1.5-0.2,2.7-0.7,3.6c-0.3,0.6-0.7,1-1.1,1.4c-0.5,0.4-1,0.7-1.5,0.9c-0.5,0.2-1.1,0.4-1.8,0.5
	s-1.3,0.2-1.9,0.2c-0.5,0-1.1,0-1.8,0c-0.6,0-1.1,0-1.5,0c-0.5,0-1-0.1-1.6-0.1c-0.6-0.1-1.2-0.2-1.6-0.3c-0.5-0.1-1-0.3-1.5-0.6
	c-0.5-0.2-0.9-0.5-1.3-0.9s-0.7-0.8-0.9-1.2c-0.4-0.9-0.7-2.1-0.7-3.6c0-1.7,0.5-3.1,1.5-4.3c-0.2-0.6-0.3-1.2-0.3-1.8
	c0-0.8,0.2-1.6,0.6-2.4c0.8,0,1.5,0.1,2.1,0.4s1.3,0.7,2,1.3c1.1-0.3,2.2-0.4,3.3-0.4s2.1,0.1,3,0.3c0.8-0.6,1.4-1,2-1.3
	s1.3-0.4,2-0.4c0.4,0.7,0.6,1.5,0.6,2.4c0,0.6-0.1,1.2-0.3,1.8C208.3,451.7,208.8,453.1,208.8,454.8z M205.6,454.5
	c-0.5-0.6-1.2-0.9-2-0.9c-0.3,0-1,0.1-2.1,0.2c-0.5,0.1-1.1,0.1-1.7,0.1s-1.2,0-1.7-0.1c-1.1-0.2-1.8-0.2-2.1-0.2
	c-0.9,0-1.5,0.3-2,0.9s-0.7,1.3-0.7,2.2c0,0.6,0.1,1.2,0.3,1.7s0.5,0.8,0.9,1.1c0.4,0.3,0.8,0.5,1.3,0.6c0.5,0.2,1,0.3,1.5,0.3
	c0.5,0.1,1,0.1,1.6,0.1h1.8c0.6,0,1.1,0,1.6-0.1s1-0.2,1.5-0.3c0.5-0.2,1-0.4,1.3-0.6c0.4-0.3,0.6-0.6,0.9-1.1
	c0.2-0.5,0.3-1,0.3-1.7C206.4,455.8,206.1,455.1,205.6,454.5z M204,458.4c-0.2,0.2-0.5,0.4-0.8,0.4s-0.6-0.1-0.8-0.4
	c-0.2-0.2-0.4-0.5-0.5-0.8s-0.1-0.6-0.1-0.9s0-0.6,0.1-0.9s0.2-0.6,0.5-0.8c0.2-0.2,0.5-0.4,0.8-0.4s0.6,0.1,0.8,0.4
	c0.2,0.2,0.4,0.5,0.5,0.8s0.1,0.6,0.1,0.9s0,0.6-0.1,0.9S204.3,458.2,204,458.4z M197.1,458.4c-0.2,0.2-0.5,0.4-0.8,0.4
	s-0.6-0.1-0.8-0.4c-0.2-0.2-0.4-0.5-0.5-0.8s-0.1-0.6-0.1-0.9s0-0.6,0.1-0.9s0.2-0.6,0.5-0.8c0.2-0.2,0.5-0.4,0.8-0.4
	s0.6,0.1,0.8,0.4c0.2,0.2,0.4,0.5,0.5,0.8s0.1,0.6,0.1,0.9s0,0.6-0.1,0.9S197.3,458.2,197.1,458.4z"/>
<path class="st15" d="M80,517.8c24.7,0,49.3,0,74,0c0,6.7,0,13.3,0,20c-24.7,0-49.3,0-74,0C80,531.1,80,524.5,80,517.8z"/>
<path class="st16" d="M159.9,517.8c24.7,0,49.3,0,74,0v20h-74C159.9,531.1,159.9,524.5,159.9,517.8z"/>
<rect x="239.9" y="517.8" class="st12" width="74" height="20"/>
<path class="st17" d="M393.9,537.8h-74v-20c24.7,0,49.3,0,74,0V537.8z"/>
<path class="st18" d="M473.9,537.8h-74v-20c24.7,0,49.3,0,74,0V537.8z"/>
<path class="st19" d="M553.9,537.8c-24.7,0-49.3,0-74,0v-20c24.7,0,49.3,0,74,0V537.8z"/>
<path class="st20" d="M10,537.8h64v-20H10c-5.5,0-10,4.5-10,10l0,0C0,533.3,4.5,537.8,10,537.8z"/>
<path class="st21" d="M623.9,517.8h-64v20h64c5.5,0,10-4.5,10-10l0,0C633.9,522.3,629.4,517.8,623.9,517.8z"/>
<polyline class="st22" points="781.3,233.2 787.7,239.5 794,233.1 "/>
<path class="st23" d="M516,176.7l-6-6l6-6v3.6h6v4.8h-6V176.7z"/>
<path class="st10" d="M540,164.7l6,6l-6,6v-3.6h-6v-4.8h6V164.7z"/>
<path class="st24" d="M588.2,195.3c0,2.2-4.7,3.9-10.5,3.9s-10.5-1.7-10.5-3.9"/>
<path class="st24" d="M588.2,188.6c0,2.2-4.7,3.9-10.5,3.9s-10.5-1.7-10.5-3.9"/>
<path class="st24" d="M588.2,182c0,2.2-4.7,3.9-10.5,3.9s-10.5-1.7-10.5-3.9"/>
<ellipse class="st25" cx="577.8" cy="175.4" rx="10.5" ry="3.9"/>
<path class="st24" d="M615.8,174.9c0,2.2-4.7,3.9-10.5,3.9s-10.5-1.7-10.5-3.9"/>
<path class="st24" d="M615.8,168.3c0,2.2-4.7,3.9-10.5,3.9s-10.5-1.7-10.5-3.9"/>
<path class="st24" d="M615.8,161.7c0,2.2-4.7,3.9-10.5,3.9s-10.5-1.7-10.5-3.9"/>
<ellipse class="st25" cx="605.3" cy="155" rx="10.5" ry="3.9"/>
<path class="st24" d="M615.8,181.7c0,2.2-4.7,3.9-10.5,3.9s-10.5-1.7-10.5-3.9"/>
<path class="st24" d="M615.8,188.5c0,2.2-4.7,3.9-10.5,3.9s-10.5-1.7-10.5-3.9"/>
<path class="st24" d="M615.8,195.3c0,2.2-4.7,3.9-10.5,3.9s-10.5-1.7-10.5-3.9"/>
<path class="st12" d="M236.9,451.6c-0.3-0.3-0.9-0.3-1.2,0l-3.4,3.4l-3.4-3.4c-0.2-0.2-0.4-0.3-0.6-0.3l0,0c-0.2,0-0.5,0.1-0.6,0.3
	c-0.3,0.3-0.3,0.9,0,1.2l4,4c0.2,0.2,0.4,0.3,0.6,0.3l0,0c0.2,0,0.5-0.1,0.6-0.3l4-4C237.2,452.5,237.2,451.9,236.9,451.6z"/>
<circle class="st26" cx="269" cy="453.8" r="10.5"/>
<path class="st12" d="M269,454.1L269,454.1c-0.5,0-1,0.3-1-0.3v-6.3c0-0.5,0.5-1,1-1l0,0c0.5,0,1,0.5,1,1v6.3
	C270,454.4,269.5,454.1,269,454.1z"/>
<path class="st12" d="M268,453.8L268,453.8c0-0.6,0.5-1,1-1h4.5c0.5,0,1,0.4,1,1l0,0c0,0.5-0.5,1-1,1H269
	C268.5,454.8,268,454.4,268,453.8z"/>
<circle class="st27" cx="455.9" cy="453.2" r="9"/>
<path class="st28" d="M455.9,453.5L455.9,453.5c-0.4,0-0.9,0.3-0.9-0.3v-5.4c0-0.4,0.4-0.9,0.9-0.9l0,0c0.4,0,0.9,0.4,0.9,0.9v5.4
	C456.7,453.7,456.3,453.5,455.9,453.5z"/>
<path class="st28" d="M455,453.2L455,453.2c0-0.5,0.4-0.9,0.9-0.9h3.9c0.4,0,0.9,0.3,0.9,0.9l0,0c0,0.4-0.4,0.9-0.9,0.9h-3.9
	C455.4,454.1,455,453.7,455,453.2z"/>
<path class="st20" d="M299,444.9c-4.9,0-8.9,4-8.9,8.9s4,8.9,8.9,8.9s8.9-4,8.9-8.9S303.9,444.9,299,444.9z"/>
<g>
	<path class="st4" d="M295.3,451.4c0-0.5,0.1-0.9,0.4-1.4s0.7-0.9,1.3-1.2c0.6-0.3,1.2-0.5,2-0.5c0.7,0,1.3,0.1,1.9,0.4
		c0.5,0.3,1,0.6,1.3,1.1c0.3,0.4,0.4,0.9,0.4,1.5c0,0.4-0.1,0.8-0.3,1.1s-0.4,0.6-0.6,0.8c-0.2,0.2-0.6,0.6-1.2,1.1
		c-0.2,0.2-0.3,0.3-0.4,0.4s-0.2,0.2-0.2,0.3c0,0.1-0.1,0.2-0.1,0.3c0,0.1-0.1,0.3-0.1,0.5c-0.1,0.5-0.4,0.8-0.9,0.8
		c-0.3,0-0.5-0.1-0.6-0.2s-0.3-0.4-0.3-0.7c0-0.4,0.1-0.8,0.2-1.1c0.1-0.3,0.3-0.6,0.5-0.8c0.2-0.2,0.5-0.5,0.8-0.8s0.5-0.5,0.7-0.6
		c0.1-0.1,0.3-0.3,0.4-0.5s0.1-0.4,0.1-0.6c0-0.4-0.1-0.7-0.4-1s-0.7-0.4-1.1-0.4c-0.5,0-0.9,0.1-1.2,0.4s-0.5,0.7-0.6,1.2
		c-0.2,0.6-0.5,0.8-0.9,0.8c-0.3,0-0.5-0.1-0.7-0.3C295.4,451.8,295.3,451.6,295.3,451.4z M298.9,459.4c-0.3,0-0.6-0.1-0.8-0.3
		s-0.3-0.5-0.3-0.8s0.1-0.6,0.3-0.8c0.2-0.2,0.5-0.3,0.8-0.3s0.6,0.1,0.8,0.3c0.2,0.2,0.3,0.5,0.3,0.8s-0.1,0.6-0.3,0.8
		S299.2,459.4,298.9,459.4z"/>
</g>
<g>
	<g>
		<path class="st28" d="M332.3,454.8l2.7-2.7c0.4-0.4,0.4-1.1,0-1.5s-1.1-0.4-1.5,0l-2.7,2.7l-2.7-2.7c-0.4-0.4-1.1-0.4-1.5,0
			s-0.4,1.1,0,1.5l2.7,2.7l-2.7,2.7c-0.4,0.4-0.4,1.1,0,1.5s1.1,0.4,1.5,0l2.7-2.7l2.7,2.7c0.4,0.4,1.1,0.4,1.5,0s0.4-1.1,0-1.5
			L332.3,454.8z"/>
	</g>
</g>
<path id="XMLID_6_" class="st12" d="M33,578c-18.2,0-33,14.8-33,33s14.8,33,33,33s33-14.8,33-33S51.2,578,33,578z M33,638.8
	c-15.4,0-27.8-12.4-27.8-27.8s12.4-27.8,27.8-27.8s27.8,12.4,27.8,27.8S48.4,638.8,33,638.8z"/>
<path class="st12" d="M49.2,618.4c0,0,0.1-0.2,0.2-0.5c0.1-0.3,0.3-0.7,0.5-1.3c0.3-1.1,0.6-2.8,0.6-4.7c-0.1-2-0.6-4.3-1.6-6.5
	c-0.3-0.6-0.6-1.1-0.9-1.7c-0.3-0.6-0.7-1.1-1.1-1.6l-0.7-0.8c-0.2-0.3-0.4-0.5-0.6-0.7c-0.5-0.5-0.9-1-1.4-1.5
	c-1-0.9-2.1-1.7-3.2-2.4c-0.6-0.3-1.1-0.7-1.7-0.9c-0.6-0.3-1.2-0.5-1.8-0.7c-1.2-0.4-2.4-0.7-3.5-0.9c-1.1-0.1-2.2-0.2-3.2-0.1
	c-1,0-1.9,0.2-2.7,0.4s-1.5,0.4-2,0.6c-0.6,0.2-0.9,0.4-1.2,0.6c-0.3,0.1-0.4,0.2-0.4,0.2l-0.2,0.1c-0.1,0-0.1,0.1-0.1,0.2
	c0,0.1,0.1,0.3,0.2,0.3c0,0,0.1,0,0.4,0.1c0.3,0,0.6,0.1,1.1,0.2c0.5,0.1,1,0.2,1.7,0.4c0.6,0.2,1.4,0.4,2.2,0.6
	c1.6,0.5,3.4,1.2,5.2,2.2s3.6,2.3,5.2,3.7c0.8,0.7,1.6,1.5,2.3,2.3s1.3,1.6,1.9,2.5c1.1,1.7,2,3.4,2.6,4.9s1,2.8,1.3,3.8
	c0.3,0.9,0.4,1.5,0.4,1.5c0,0.1,0.1,0.1,0.1,0.2c0.1,0.1,0.3,0,0.4-0.1V618.4z"/>
<g>
	<path class="st12" d="M43.1,605.2l4-4c1.2-1.2,1.2-3.1,0-4.2s-3.1-1.2-4.2,0l-4,4L43.1,605.2z"/>
	<path class="st12" d="M36,603.7l-17.2,17.2c-1.2,1.2-1.2,3.1,0,4.2s3.1,1.2,4.2,0l17.2-17.2L36,603.7z"/>
</g>
<polyline class="st29" points="377.1,455.4 379.6,457.9 382.1,455.4 "/>
<line class="st30" x1="379.6" y1="457.9" x2="379.6" y2="449.9"/>
<line class="st30" x1="385.1" y1="449.9" x2="392.1" y2="449.9"/>
<line class="st30" x1="385.1" y1="453.9" x2="390.1" y2="453.9"/>
<line class="st30" x1="385.1" y1="457.9" x2="388.1" y2="457.9"/>
<polyline class="st29" points="402.1,452.4 404.6,449.9 407.1,452.4 "/>
<line class="st30" x1="404.6" y1="449.9" x2="404.6" y2="457.9"/>
<line class="st30" x1="410.1" y1="449.9" x2="417.1" y2="449.9"/>
<line class="st30" x1="410.1" y1="453.9" x2="415.1" y2="453.9"/>
<line class="st30" x1="410.1" y1="457.9" x2="413.1" y2="457.9"/>
<polyline class="st31" points="427.1,455.4 429.6,457.9 432.1,455.4 "/>
<line class="st32" x1="429.6" y1="457.9" x2="429.6" y2="449.9"/>
<polyline class="st31" points="433.1,452.4 435.6,449.9 438.1,452.4 "/>
<line class="st32" x1="435.6" y1="449.9" x2="435.6" y2="457.9"/>
<circle class="st33" cx="481.2" cy="453.2" r="9"/>
<path class="st34" d="M481.2,453.5L481.2,453.5c-0.4,0-0.9,0.3-0.9-0.3v-5.4c0-0.4,0.4-0.9,0.9-0.9l0,0c0.4,0,0.9,0.4,0.9,0.9v5.4
	C482,453.7,481.6,453.5,481.2,453.5z"/>
<path class="st34" d="M480.3,453.2L480.3,453.2c0-0.5,0.4-0.9,0.9-0.9h3.9c0.4,0,0.9,0.3,0.9,0.9l0,0c0,0.4-0.4,0.9-0.9,0.9h-3.9
	C480.7,454.1,480.3,453.7,480.3,453.2z"/>
<path class="st19" d="M103,585.5c-14.1,0-25.5,11.4-25.5,25.5s11.4,25.5,25.5,25.5s25.5-11.4,25.5-25.5S117.1,585.5,103,585.5z
	 M103,631.5c-11.3,0-20.5-9.2-20.5-20.5s9.2-20.5,20.5-20.5s20.5,9.2,20.5,20.5S114.3,631.5,103,631.5z"/>
<path class="st19" d="M114.1,606.7L100.9,620l-3.7-3.7l0,0l-4.3-4.4l3.7-3.7l4.3,4.3l9.4-9.5L114.1,606.7z"/>
<g>
	<g>
		<path class="st12" d="M238.7,604.7c0-0.9,0.5-1.9,1.4-1.9h2.4V599h-2.9c-4.7,0.1-5.6,2.7-5.7,5.4v3.1h-2.4v3.9h2.4v12.2h4.8v-12.2
			h3.5l0.8-3.9h-4.3V604.7z M295.2,601.8c-0.8,0.5-2.5,1.2-3.4,1.2c-1-1-2.4-1.6-3.9-1.6c-3,0-5.4,2.4-5.4,5.4c0,0.4,0,0.9,0.1,1.2
			c-4.1-0.1-8.6-2.1-11.3-5.6c-1.6,2.9-0.3,6,1.6,7.1c-0.6,0-1.8-0.1-2.4-0.6c0,1.9,0.9,4.4,4.2,5.2c-0.6,0.4-1.8,0.2-2.3,0.1
			c0.1,1.6,2.4,3.6,4.9,3.6c-0.9,1-4.2,2.9-7.8,2.2c2.5,1.5,5.4,2.4,8.6,2.4c8.9,0,15.7-7,15.3-15.7c0,0,0,0,0-0.1c0,0,0,0,0-0.1
			c0.6-0.5,1.8-1.4,2.5-2.7c-0.5,0.2-1.8,0.7-3,0.9C293.7,604.3,294.9,602.8,295.2,601.8z M340.8,606.6h-4.6c-0.5,0-0.9,0.1-1,0.6
			c-0.3,0.5-0.5,1.1-0.8,1.7c-0.6,1.4-1.4,2.6-2.4,3.7c-0.3,0.2-0.5,0.5-0.9,0.4c-0.5-0.2-0.6-1-0.6-1.2v-4.7c0-0.7-0.3-1-0.9-1.1
			h-4.3c-0.5,0-0.9,0.2-1.1,0.6c-0.1,0.1-0.3,0.2,0.1,0.4c0.8,0.1,1.1,0.5,1.3,1.2c0.1,1.1,0.1,2.2,0,3.4c0,0.4-0.1,0.7-0.3,1
			c-0.3,0.5-0.5,0.5-1,0.2c-0.5-0.2-0.8-0.6-1-1c-1-1.4-1.9-3-2.5-4.6c-0.1-0.5-0.5-0.7-1-0.7H316c-0.8,0-0.9,0.4-0.6,1
			c1.3,3,2.8,6,4.8,8.6c1,1.4,2.2,2.5,3.7,3.4c1.6,0.9,3.5,1.2,5.4,1.1c1,0,1.3-0.2,1.3-1.1c0-0.6,0.1-1.2,0.4-1.7s0.8-0.6,1.3-0.2
			c0.3,0.1,0.4,0.4,0.6,0.6c0.5,0.5,1,1.1,1.5,1.6c0.6,0.6,1.4,1.1,2.4,1h3.8c0.6-0.1,1-0.9,0.6-1.5c-0.3-0.5-0.5-1-0.9-1.4
			c-0.8-1-1.6-1.7-2.5-2.6c-0.8-0.9-0.9-1.2-0.1-1.7c0.8-1,1.4-1.9,2.2-2.9c0.6-0.9,1.3-1.7,1.6-2.9
			C341.6,606.9,341.5,606.7,340.8,606.6z M385.3,606.2c-0.8,0-1.5,0.2-2.2,0.6c-1.9-1.1-4.4-1.7-7-1.9l1.5-4.4l3.2,0.7
			c0,0.1,0,0.2,0,0.2c0,1.7,1.4,3.1,3.2,3.1s3.2-1.4,3.2-3.1c0-1.7-1.4-3.1-3.2-3.1c-1.1,0-2.2,0.6-2.7,1.5l-4.6-1.1l-2.2,6
			c-2.6,0.1-5,0.9-6.9,1.9c0,0,0,0,0-0.1c-0.6-0.4-1.4-0.6-2.2-0.6c-2.3,0-4.1,1.9-4.1,4.1c0,1.5,0.9,2.9,2,3.6
			c0.5,4.2,5.7,7.6,11.9,7.6c6.3,0,11.5-3.4,12-7.7c1.1-0.7,1.9-2,1.9-3.5C389.4,608.1,387.6,606.2,385.3,606.2z M369.4,611.8
			c0-1,0.9-1.9,1.9-1.9s1.9,0.9,1.9,1.9s-0.9,1.9-1.9,1.9S369.4,612.9,369.4,611.8z M379.9,617.1c-1.6,1-3.2,1.4-4.4,1.4
			c-2.7,0-4.4-1.4-4.6-1.5c-0.3-0.2-0.4-0.6-0.1-1c0.3-0.2,0.6-0.4,1-0.1c0.1,0.1,3.3,2.5,7.3,0c0.4-0.2,0.8-0.1,1,0.2
			S380.1,616.9,379.9,617.1z M379.4,613.7c-1,0-1.9-0.9-1.9-1.9s0.9-1.9,1.9-1.9s1.9,0.9,1.9,1.9S380.4,613.7,379.4,613.7z"/>
	</g>
</g>
<path class="st23" d="M173,585.5c-14.1,0-25.5,11.4-25.5,25.5s11.4,25.5,25.5,25.5s25.5-11.4,25.5-25.5S187.1,585.5,173,585.5z
	 M173,631.5c-11.3,0-20.5-9.2-20.5-20.5s9.2-20.5,20.5-20.5s20.5,9.2,20.5,20.5S184.3,631.5,173,631.5z"/>
<path class="st23" d="M181.5,606.1l-13.2,13.3l-3.7-3.7l0,0l13.1-13.3L181.5,606.1z"/>
<path class="st23" d="M168.3,602.4l13.1,13.3l0,0l-3.7,3.7l-13.2-13.3L168.3,602.4z"/>
<path class="st35" d="M512.7,452l-8.7,8.7c-1.8,1.8-4.7,1.8-6.5,0l0,0c-1.8-1.8-1.8-4.7,0-6.5l9.3-9.3c0.7-0.7,1.8-0.7,2.5,0l2,2
	c0.7,0.7,0.7,1.8,0,2.5l-7.5,7.5c-0.7,0.7-1.8,0.7-2.5,0l0,0c-0.7-0.7-0.7-1.8,0-2.5l7.2-7.2"/>
<polygon class="st36" points="524,460 527.4,452.2 530.4,455.7 532.3,454.4 536,460 "/>
<circle class="st36" cx="534.1" cy="450.3" r="1.7"/>
<path class="st36" d="M553.4,450h-6.8c-0.3,0-0.5-0.2-0.5-0.5s0.2-0.5,0.5-0.5h6.8c0.3,0,0.5,0.2,0.5,0.5S553.7,450,553.4,450z"/>
<path class="st36" d="M553.4,453h-6.8c-0.3,0-0.5-0.2-0.5-0.5s0.2-0.5,0.5-0.5h6.8c0.3,0,0.5,0.2,0.5,0.5S553.7,453,553.4,453z"/>
<path class="st36" d="M553.4,456h-6.8c-0.3,0-0.5-0.2-0.5-0.5s0.2-0.5,0.5-0.5h6.8c0.3,0,0.5,0.2,0.5,0.5S553.7,456,553.4,456z"/>
<path class="st36" d="M549.5,459h-2.9c-0.3,0-0.5-0.2-0.5-0.5s0.2-0.5,0.5-0.5h2.9c0.3,0,0.5,0.2,0.5,0.5S549.8,459,549.5,459z"/>
<path class="st36" d="M554.5,462h-9c-1.4,0-2.5-1.1-2.5-2.4v-11.3c0-1.3,1.1-2.4,2.5-2.4h9c1.4,0,2.5,1.1,2.5,2.4v11.3
	C557,460.9,555.9,462,554.5,462z M545.5,446.9c-0.8,0-1.5,0.6-1.5,1.4v11.3c0,0.8,0.7,1.4,1.5,1.4h9c0.8,0,1.5-0.6,1.5-1.4v-11.3
	c0-0.8-0.7-1.4-1.5-1.4H545.5z"/>
<path class="st36" d="M535.6,462h-11.3c-1.3,0-2.4-1.1-2.4-2.4v-11.3c0-1.3,1.1-2.4,2.4-2.4h11.3c1.3,0,2.4,1.1,2.4,2.4v11.3
	C538,460.9,536.9,462,535.6,462z M524.4,446.9c-0.8,0-1.4,0.6-1.4,1.4v11.3c0,0.8,0.6,1.4,1.4,1.4h11.3c0.8,0,1.4-0.6,1.4-1.4v-11.3
	c0-0.8-0.6-1.4-1.4-1.4H524.4z"/>
<circle class="st37" cx="576.2" cy="453.2" r="9"/>
<path class="st38" d="M576.2,453.5L576.2,453.5c-0.4,0-0.9,0.3-0.9-0.3v-5.4c0-0.4,0.4-0.9,0.9-0.9l0,0c0.4,0,0.9,0.4,0.9,0.9v5.4
	C577,453.7,576.6,453.5,576.2,453.5z"/>
<path class="st38" d="M575.3,453.2L575.3,453.2c0-0.5,0.4-0.9,0.9-0.9h3.9c0.4,0,0.9,0.3,0.9,0.9l0,0c0,0.4-0.4,0.9-0.9,0.9h-3.9
	C575.7,454.1,575.3,453.7,575.3,453.2z"/>
<g>
	<path class="st19" d="M715,489.8c-14.9,0-27-12.1-27-27c0-8.9,4.4-17.2,11.8-22.3v-14.6c0-8.4,6.8-15.3,15.3-15.3
		s15.3,6.8,15.3,15.3v14.6c7.4,5.1,11.8,13.4,11.8,22.3C742,477.7,729.9,489.8,715,489.8z M715,452.3c-4,0-7.2,3.1-7.2,7.2
		c0,2.5,1.3,4.7,3.4,6l0.2,0.1v4.2c0,1.8,1.5,3.5,3.5,3.5s3.5-1.5,3.5-3.5v-4.2l0.2-0.1c2.1-1.3,3.4-3.6,3.4-6
		C722.2,455.4,719,452.3,715,452.3z M715,418.5c-4,0-7.4,3.4-7.4,7.4v10.9c2.4-0.7,4.9-1,7.4-1s5,0.3,7.4,1v-10.9
		C722.4,421.9,719.2,418.5,715,418.5z"/>
</g>
<path class="st4" d="M612.4,450.5l-10.6,10.1l-3-2.9l0,0l-3.5-3.3l3-2.9l3.5,3.3l7.6-7.3L612.4,450.5z"/>
<polyline class="st39" points="617.9,460 628.1,449.7 638.4,460 "/>
<g id="Layer_2">
	<line class="st6" x1="127.5" y1="700.9" x2="141.4" y2="700.9"/>
	<line class="st40" x1="207.9" y1="687.2" x2="219.9" y2="699.2"/>
	<polygon class="st41" points="131,697.1 127.6,697.1 127.7,693.8 137.9,683.5 141.2,686.8 	"/>
	<line class="st41" x1="135" y1="686.4" x2="138.3" y2="689.7"/>
	<line class="st42" x1="53.9" y1="684.2" x2="53.9" y2="700.2"/>
	<line class="st42" x1="61.9" y1="692.2" x2="45.9" y2="692.2"/>
	<line class="st40" x1="219.9" y1="687.2" x2="207.9" y2="699.2"/>
	<circle class="st43" cx="292.1" cy="691.3" r="5.7"/>
	<line class="st43" x1="288.1" y1="695.3" x2="282.8" y2="700.7"/>
</g>
<polyline class="st44" points="353.8,450.6 357.5,446.6 361.2,450.6 "/>
<polyline class="st40" points="361.2,457.6 357.5,461.6 353.8,457.6 "/>
<polyline class="st45" points="371.7,692 374.6,688.8 377.6,692 "/>
<polyline class="st46" points="371.7,696.7 374.6,693.6 377.6,696.7 "/>
<polyline class="st47" points="371.7,701.5 374.6,698.3 377.6,701.5 "/>
<polygon class="st48" points="437,706.7 411,706.7 411,677.7 425.7,677.7 437,689.1 "/>
<polyline class="st48" points="437,689.1 425.7,689.1 425.7,677.7 "/>
<g>
	<path class="st19" d="M433.5,704h-19c-0.3,0-0.6-0.3-0.6-0.6V694c0-0.3,0.3-0.6,0.6-0.6h19c0.3,0,0.6,0.3,0.6,0.6v9.5
		C434.1,703.8,433.8,704,433.5,704z"/>
</g>
<g>
	<path class="st4" d="M415.9,698.6c0-0.3,0.1-0.7,0.2-1s0.3-0.6,0.6-0.9c0.3-0.3,0.6-0.5,0.9-0.7c0.4-0.2,0.8-0.3,1.2-0.3
		c0.6,0,1,0.1,1.4,0.3s0.7,0.5,0.9,0.9l-1.2,0.9c-0.1-0.1-0.1-0.3-0.2-0.3c-0.1-0.1-0.2-0.2-0.3-0.2c-0.1-0.1-0.2-0.1-0.3-0.1
		c-0.1,0-0.2,0-0.3,0c-0.2,0-0.4,0-0.6,0.1s-0.3,0.2-0.4,0.3s-0.2,0.3-0.2,0.5c-0.1,0.2-0.1,0.4-0.1,0.5c0,0.2,0,0.4,0.1,0.6
		c0.1,0.2,0.1,0.3,0.3,0.5c0.1,0.1,0.3,0.3,0.4,0.3c0.2,0.1,0.3,0.1,0.6,0.1c0.1,0,0.2,0,0.3,0c0.1,0,0.2-0.1,0.3-0.1
		c0.1-0.1,0.2-0.1,0.3-0.2c0.1-0.1,0.1-0.2,0.2-0.3l1.3,0.8c-0.1,0.2-0.2,0.4-0.4,0.6c-0.2,0.2-0.4,0.3-0.6,0.4
		c-0.2,0.1-0.5,0.2-0.7,0.3c-0.3,0.1-0.5,0.1-0.7,0.1c-0.4,0-0.8-0.1-1.2-0.3c-0.4-0.2-0.7-0.4-0.9-0.7c-0.3-0.3-0.5-0.6-0.6-1
		C416,699.4,415.9,699,415.9,698.6z"/>
	<path class="st4" d="M425.4,697.7c-0.2-0.1-0.3-0.2-0.5-0.3c-0.1-0.1-0.3-0.1-0.5-0.2c-0.2-0.1-0.4-0.1-0.5-0.1s-0.3,0-0.3,0.1
		c-0.1,0-0.1,0.1-0.1,0.2c0,0.1,0,0.1,0.1,0.2c0,0,0.1,0.1,0.2,0.1s0.2,0.1,0.3,0.1c0.1,0,0.3,0.1,0.4,0.1c0.3,0.1,0.5,0.2,0.7,0.3
		s0.4,0.2,0.5,0.3c0.2,0.1,0.3,0.3,0.3,0.5c0.1,0.2,0.1,0.4,0.1,0.7s-0.1,0.6-0.2,0.9c-0.1,0.2-0.3,0.4-0.5,0.6
		c-0.2,0.1-0.4,0.2-0.7,0.3c-0.3,0.1-0.5,0.1-0.8,0.1c-0.2,0-0.4,0-0.6,0s-0.4-0.1-0.7-0.1c-0.2-0.1-0.4-0.1-0.6-0.2
		s-0.4-0.2-0.6-0.3l0.7-1.4c0.2,0.1,0.4,0.2,0.6,0.3s0.4,0.2,0.6,0.2c0.2,0.1,0.4,0.1,0.7,0.1c0.2,0,0.3,0,0.4-0.1
		c0.1,0,0.1-0.1,0.1-0.2c0-0.1,0-0.2-0.1-0.2c-0.1-0.1-0.2-0.1-0.3-0.2c-0.1,0-0.3-0.1-0.4-0.1c-0.2,0-0.3-0.1-0.5-0.2
		c-0.3-0.1-0.5-0.2-0.6-0.3c-0.2-0.1-0.3-0.2-0.5-0.3c-0.1-0.1-0.2-0.3-0.3-0.4c-0.1-0.2-0.1-0.3-0.1-0.6s0.1-0.6,0.2-0.8
		s0.3-0.4,0.5-0.6c0.2-0.2,0.4-0.3,0.7-0.4c0.3-0.1,0.5-0.1,0.8-0.1c0.2,0,0.4,0,0.6,0.1s0.4,0.1,0.6,0.2c0.2,0.1,0.4,0.1,0.5,0.2
		c0.2,0.1,0.3,0.1,0.4,0.2L425.4,697.7z"/>
	<path class="st4" d="M428.2,695.8l1.1,3.8l1.1-3.8h1.6l-2.1,5.7h-1.3l-2.1-5.7H428.2z"/>
</g>
<rect x="409.9" y="680.1" class="st4" width="2.2" height="1"/>
<rect x="410" y="691" class="st4" width="2.1" height="2.1"/>
<g>
	<path class="st19" d="M413.7,686.7v-5.3c0-0.2-0.1-0.3-0.3-0.3h-4.7c-0.2,0-0.3,0.1-0.3,0.3v5.3h-2.1c-0.3,0-0.4,0.3-0.2,0.5
		l4.7,4.8c0.1,0.1,0.3,0.1,0.4,0l4.7-4.8c0.2-0.2,0.1-0.5-0.2-0.5H413.7z"/>
</g>
<path class="st20" d="M443,585.5c-14.1,0-25.5,11.4-25.5,25.5s11.4,25.5,25.5,25.5s25.5-11.4,25.5-25.5S457.1,585.5,443,585.5z
	 M443,631.5c-11.3,0-20.5-9.2-20.5-20.5s9.2-20.5,20.5-20.5s20.5,9.2,20.5,20.5S454.3,631.5,443,631.5z"/>
<polyline class="st49" points="442,599.2 442,614 453.3,614 "/>
<path class="st4" d="M299,466.9c-4.9,0-8.9,4-8.9,8.9s4,8.9,8.9,8.9s8.9-4,8.9-8.9S303.9,466.9,299,466.9z M299.7,481.1
	c-0.2,0.2-0.5,0.3-0.8,0.3s-0.6-0.1-0.8-0.3c-0.2-0.2-0.3-0.5-0.3-0.8s0.1-0.6,0.3-0.8s0.5-0.3,0.8-0.3s0.6,0.1,0.8,0.3
	c0.2,0.2,0.3,0.5,0.3,0.8S299.9,480.9,299.7,481.1z M302.3,474.4c-0.2,0.3-0.4,0.6-0.6,0.8c-0.2,0.2-0.6,0.6-1.2,1.1
	c-0.2,0.2-0.3,0.3-0.4,0.4s-0.2,0.2-0.2,0.3c0,0.1-0.1,0.2-0.1,0.3c0,0.1-0.1,0.3-0.1,0.5c-0.1,0.5-0.4,0.8-0.9,0.8
	c-0.3,0-0.5-0.1-0.6-0.2s-0.3-0.4-0.3-0.7c0-0.4,0.1-0.8,0.2-1.1c0.1-0.3,0.3-0.6,0.5-0.8c0.2-0.2,0.5-0.5,0.8-0.8s0.5-0.5,0.7-0.6
	c0.1-0.1,0.3-0.3,0.4-0.5s0.1-0.4,0.1-0.6c0-0.4-0.1-0.7-0.4-1s-0.7-0.4-1.1-0.4c-0.5,0-0.9,0.1-1.2,0.4c-0.3,0.3-0.5,0.7-0.6,1.2
	c-0.2,0.6-0.5,0.8-0.9,0.8c-0.3,0-0.5-0.1-0.7-0.3c-0.3-0.2-0.4-0.4-0.4-0.6c0-0.5,0.1-0.9,0.4-1.4s0.7-0.9,1.3-1.2s1.2-0.5,2-0.5
	c0.7,0,1.3,0.1,1.9,0.4c0.5,0.3,1,0.6,1.3,1.1c0.3,0.4,0.4,0.9,0.4,1.5C302.6,473.7,302.5,474.1,302.3,474.4z"/>
<path id="XMLID_63_" class="st50" d="M126.8,46.4c-5.4,0-11.2-4.5-11.2-13.3c0-8.4,5.8-13.5,11.3-13.5c3.5,0,6.2,1.5,7.4,2.2
	c0.3,0.2,0.4,0.7,0.1,1l-0.9,1.1c-0.2,0.3-0.6,0.3-0.9,0.1c-0.9-0.6-3-1.7-5.7-1.7c-3.4,0-8.5,3.2-8.5,10.6s4.5,10.5,8.4,10.5
	c3,0,5.3-1.1,6.3-1.6c0.3-0.2,0.7-0.1,0.9,0.2l0.8,1.2c0.2,0.3,0.1,0.8-0.2,1C133.4,45,130.6,46.4,126.8,46.4z"/>
<path id="XMLID_60_" class="st50" d="M146.7,46.2c-5.4,0-11.2-4.5-11.2-13.3c0-8.4,5.8-13,11.3-13c3.3,0,10.9,1.3,11.3,12.9
	c0,0.4-0.1,0.8-0.4,1c-0.3,0.3-0.6,0.4-1,0.4h-18.3c0.5,6.3,4.7,9.1,8.3,9.1c3,0,5.3-1.1,6.3-1.6c0.3-0.2,0.7-0.1,0.9,0.2l0.8,1.2
	c0.2,0.3,0.1,0.8-0.2,1C153.3,44.8,150.4,46.2,146.7,46.2z M138.3,31.4H155c-0.7-7.2-4.9-8.7-8.3-8.7
	C143.6,22.7,138.9,25,138.3,31.4z"/>
<path id="XMLID_2_" class="st50" d="M110,20.1h-6c-0.3,0-0.5,0.2-0.5,0.5v1.8c0,0.3,0.2,0.5,0.5,0.5h3.9v22.5c0,0.4,0.3,0.7,0.7,0.7
	h1.4c0.4,0,0.7-0.3,0.7-0.7V20.8C110.7,20.4,110.4,20.1,110,20.1z"/>
<path id="XMLID_37_" class="st50" d="M206.9,29.6c0-1.9,0-4-1.6-6.3c-3.1-4.4-9.2-5.4-17.1-2.9c-0.5,0.1-0.7,0.6-0.6,1.1l1.5,4.3
	c0.2,0.4,0.6,0.7,1.1,0.6c2.6-0.8,8.1-2.1,10,0.6c0.4,0.5,0.4,1.1,0.4,2.6c-0.9-0.1-2-0.2-3.2-0.2c-1,0-2.1,0.1-3.3,0.4
	c-2.7,0.6-5.1,1.9-6.5,4.3c-0.4,0.7-0.7,1.4-0.9,2.2c-0.6,2.6,0.1,5.6,2,7.5c0.3,0.3,0.5,0.5,0.8,0.7c1.3,1,2.7,1.6,4,1.9
	c3.7,1,7.5,0.6,11.2,0c1.1-0.2,1.7-0.3,1.7-0.4c0.2,0,0.4-0.2,0.4-0.4C207,43.5,206.9,29.6,206.9,29.6z M200,41.2
	c-0.5,0-1,0-1.1,0.1c-0.6,0-1.2,0-1.8,0c-0.8-0.1-1.6-0.2-2.3-0.4s-1.5-0.5-2-1.1c-0.4-0.5-0.6-1.1-0.6-1.7c0-0.5,0.1-1,0.4-1.4
	c0.3-0.5,0.8-0.9,1.3-1.1c1.2-0.5,2.5-0.7,3.7-0.8c1.2,0,2.3,0.1,3.1,0.2c0,2.1,0,6.2,0,6.2S200.3,41.1,200,41.2z"/>
<path id="XMLID_36_" class="st50" d="M212,39.4c0.1-0.5,0.6-0.7,1.1-0.6c0.7,0.2,1.3,0.4,2,0.6H215c2.1,0.6,5.4,1.8,7.1-0.1
	c0.3-0.3,0.5-0.6,0.5-1c0.1-1.1-1.2-1.4-2-1.7c-1.7-0.6-3.4-1.2-5.1-1.8c-1.3-0.5-2.7-1.2-3.7-2.1c-2.2-2-2.9-5.4-1.8-8.1
	c1.5-3.5,5.1-5.4,8.8-5.4c2.8,0,5.5,0.9,8.2,1.7c0.5,0.1,0.7,0.6,0.6,1.1l-1.1,3.8c-0.1,0.5-0.6,0.7-1.1,0.6c-1.5-0.4-3-0.9-4.6-1.2
	c-1.4-0.2-3.2-0.4-4.4,0.6c-0.6,0.5-1.1,1.3-0.8,2c0.2,0.6,0.9,0.9,1.5,1.1c0.7,0.3,1.4,0.5,2.2,0.8c1.5,0.5,2.9,0.9,4.3,1.5
	c1.4,0.6,2.8,1.4,3.7,2.6c1.4,1.7,1.9,4.1,1.4,6.3c-1,4.3-5.1,6.8-9.3,6.8h-0.1c-2.8,0-5.5-0.8-8.2-1.6c-0.5-0.1-0.7-0.6-0.6-1.1
	L212,39.4z"/>
<path id="XMLID_35_" class="st50" d="M183.1,20.1h-4.8c-0.5,0-0.9,0.4-0.9,0.9v9h-9.2v-9c0-0.5-0.4-0.9-0.9-0.9h-4.8
	c-0.5,0-0.9,0.4-0.9,0.9v24.3c0,0.5,0.4,0.9,0.9,0.9h4.8c0.5,0,0.9-0.4,0.9-0.9v-10h9.2v10c0,0.5,0.4,0.9,0.9,0.9h4.8
	c0.5,0,0.9-0.4,0.9-0.9V21C184,20.5,183.6,20.1,183.1,20.1z"/>
<g id="XMLID_17_">
	<path id="XMLID_31_" class="st51" d="M33,0C14.8,0,0,14.8,0,33s14.8,33,33,33s33-14.8,33-33S51.2,0,33,0z M33,60.8
		C17.6,60.8,5.2,48.4,5.2,33S17.6,5.2,33,5.2S60.8,17.6,60.8,33S48.4,60.8,33,60.8z"/>
	<path id="XMLID_30_" class="st51" d="M48.4,43.1c-1.2-0.8-2.8-0.4-3.6,0.8c0,0.1-3.7,5.8-11.8,5.8c-8,0-11.6-5.5-11.8-5.8
		c-0.7-1.2-2.3-1.6-3.5-0.8c-1.2,0.7-1.6,2.3-0.9,3.5c0.2,0.3,5.3,8.2,16.2,8.2s16-7.8,16.2-8.2C49.9,45.4,49.6,43.8,48.4,43.1z"/>
	<path id="XMLID_26_" class="st51" d="M18.1,38.2c0,0.7,0.6,1.3,1.3,1.3c0.7,0,1.3-0.6,1.3-1.3v-1.7h2v1.7c0,0.7,0.6,1.3,1.3,1.3
		l0,0c0.7,0,1.3-0.6,1.3-1.3v-1.7h1.2c0.8,0,1.5-0.7,1.5-1.5V19.1c0-0.8-0.7-1.5-1.5-1.5h-1.2v-1.4c0-0.7-0.6-1.3-1.3-1.3
		c-0.7,0-1.3,0.6-1.3,1.3v1.4h-2v-1.4c0-0.7-0.6-1.3-1.3-1.3c-0.7,0-1.3,0.6-1.3,1.3v1.5c-2.7,0.5-4.4,2.4-4.4,5.2
		c0,1.8,0.9,3.1,2,3.8c-1.4,0.9-2.2,2.4-2.2,4.2c0,3,1.8,5,4.7,5.4v1.9H18.1z M19.6,20.9h4.7v4.4h-4.7c-1.6,0-2.5-0.8-2.5-2.2
		C17.1,21.7,18,20.9,19.6,20.9z M16.8,30.9c0-1.5,1-2.4,2.6-2.4h4.9v4.8h-4.9C17.8,33.3,16.8,32.3,16.8,30.9z"/>
	<path id="XMLID_18_" class="st51" d="M50.4,26.8c1.1-0.7,2-2,2-3.8c0-2.8-1.7-4.7-4.4-5.2v-1.5c0-0.7-0.6-1.3-1.3-1.3
		s-1.3,0.6-1.3,1.3v1.4h-2v-1.4c0-0.7-0.6-1.3-1.3-1.3s-1.3,0.6-1.3,1.3v1.4h-1.2c-0.8,0-1.5,0.7-1.5,1.5V35c0,0.8,0.7,1.5,1.5,1.5
		h1.2v1.7c0,0.7,0.6,1.3,1.3,1.3l0,0c0.7,0,1.3-0.6,1.3-1.3v-1.7h2v1.7c0,0.7,0.6,1.3,1.3,1.3s1.3-0.6,1.3-1.3v-1.8
		c2.9-0.4,4.7-2.4,4.7-5.4C52.6,29.2,51.8,27.6,50.4,26.8z M48.9,23.1c0,1.4-0.9,2.2-2.5,2.2h-4.7v-4.4h4.7
		C48,20.9,48.9,21.7,48.9,23.1z M46.6,33.3h-4.9v-4.8h4.9c1.6,0,2.6,0.9,2.6,2.4C49.2,32.3,48.2,33.3,46.6,33.3z"/>
</g>
<path class="st50" d="M90.6,20.7c-2.8,0-5.8,0.9-7.9,3.1v-3c0-0.4-0.3-0.7-0.7-0.7h-1.4c-0.4,0-0.7,0.3-0.7,0.7v24.6
	c0,0.4,0.3,0.7,0.7,0.7H82c0.4,0,0.7-0.3,0.7-0.7V31.8l0,0c0-7.7,6.1-8.3,7.9-8.3c2,0,6.5,0.8,6.5,8.3v3.9l0,0V41l0,0v4.3
	c0,0.4,0.3,0.7,0.7,0.7h1.4c0.4,0,0.7-0.3,0.7-0.7V41v-0.3v-9C100,21.2,92.2,20.7,90.6,20.7z"/>
<path id="XMLID_39_" class="st50" d="M253.1,20.1h-4.8c-0.5,0-0.9,0.4-0.9,0.9v9h-9.2v-9c0-0.5-0.4-0.9-0.9-0.9h-4.8
	c-0.5,0-0.9,0.4-0.9,0.9v24.3c0,0.5,0.4,0.9,0.9,0.9h4.8c0.5,0,0.9-0.4,0.9-0.9v-10h9.2v10c0,0.5,0.4,0.9,0.9,0.9h4.8
	c0.5,0,0.9-0.4,0.9-0.9V21C254,20.5,253.6,20.1,253.1,20.1z"/>
<g>
	<g>
		<path class="st51" d="M24.3,99.3v-4.8h-4.9c-1.6,0-2.6,0.9-2.6,2.4s1,2.4,2.6,2.4H24.3z"/>
		<path class="st51" d="M19.6,91.3h4.7v-4.4h-4.7c-1.6,0-2.5,0.8-2.5,2.2S18,91.3,19.6,91.3z"/>
		<path class="st51" d="M33,66C14.8,66,0,80.8,0,99s14.8,33,33,33s33-14.8,33-33S51.2,66,33,66z M13.4,97c0-1.8,0.8-3.4,2.2-4.2
			c-1.1-0.7-2-2-2-3.8c0-2.8,1.7-4.7,4.4-5.2v-1.5c0-0.7,0.6-1.3,1.3-1.3c0.7,0,1.3,0.6,1.3,1.3v1.4h2v-1.4c0-0.7,0.6-1.3,1.3-1.3
			s1.3,0.6,1.3,1.3v1.4h1.2c0.8,0,1.5,0.7,1.5,1.5V101c0,0.8-0.7,1.5-1.5,1.5h-1.2v1.7c0,0.7-0.6,1.3-1.3,1.3s-1.3-0.6-1.3-1.3v-1.7
			h-2v1.7c0,0.7-0.6,1.3-1.3,1.3c-0.7,0-1.3-0.6-1.3-1.3v-1.8C15.2,102,13.4,100,13.4,97z M49.2,112.6c-0.2,0.3-5.3,8.2-16.2,8.2
			s-16-7.9-16.2-8.2c-0.7-1.2-0.4-2.8,0.9-3.5c1.2-0.7,2.8-0.4,3.5,0.8c0.2,0.3,3.9,5.8,11.8,5.8c8.1,0,11.8-5.7,11.8-5.8
			c0.8-1.2,2.4-1.5,3.6-0.8C49.6,109.8,49.9,111.4,49.2,112.6z M47.9,102.4v1.8c0,0.7-0.6,1.3-1.3,1.3s-1.3-0.6-1.3-1.3v-1.7h-2v1.7
			c0,0.7-0.6,1.3-1.3,1.3l0,0c-0.7,0-1.3-0.6-1.3-1.3v-1.7h-1.2c-0.8,0-1.5-0.7-1.5-1.5V85.1c0-0.8,0.7-1.5,1.5-1.5h1.2v-1.4
			c0-0.7,0.6-1.3,1.3-1.3s1.3,0.6,1.3,1.3v1.4h2v-1.4c0-0.7,0.6-1.3,1.3-1.3s1.3,0.6,1.3,1.3v1.5c2.7,0.5,4.4,2.4,4.4,5.2
			c0,1.8-0.9,3.1-2,3.8c1.4,0.9,2.2,2.4,2.2,4.2C52.6,100,50.8,102,47.9,102.4z"/>
		<path class="st51" d="M48.9,89.1c0-1.4-0.9-2.2-2.5-2.2h-4.7v4.4h4.7C48,91.3,48.9,90.5,48.9,89.1z"/>
		<path class="st51" d="M46.6,94.5h-4.9v4.8h4.9c1.6,0,2.6-0.9,2.6-2.4C49.2,95.4,48.2,94.5,46.6,94.5z"/>
	</g>
	<path id="XMLID_12_" class="st4" d="M126.8,112.4c-5.4,0-11.2-4.5-11.2-13.3c0-8.4,5.8-13.5,11.3-13.5c3.5,0,6.2,1.5,7.4,2.2
		c0.3,0.2,0.4,0.7,0.1,1l-0.9,1.1c-0.2,0.3-0.6,0.3-0.9,0.1c-0.9-0.6-3-1.7-5.7-1.7c-3.4,0-8.5,3.2-8.5,10.6s4.5,10.5,8.4,10.5
		c3,0,5.3-1.1,6.3-1.6c0.3-0.2,0.7-0.1,0.9,0.2l0.8,1.2c0.2,0.3,0.1,0.8-0.2,1C133.4,111,130.6,112.4,126.8,112.4z"/>
	<path id="XMLID_10_" class="st4" d="M146.7,112.2c-5.4,0-11.2-4.5-11.2-13.3c0-8.4,5.8-13,11.3-13c3.3,0,10.9,1.3,11.3,12.9
		c0,0.4-0.1,0.8-0.4,1c-0.3,0.3-0.6,0.4-1,0.4h-18.3c0.5,6.3,4.7,9.1,8.3,9.1c3,0,5.3-1.1,6.3-1.6c0.3-0.2,0.7-0.1,0.9,0.2l0.8,1.2
		c0.2,0.3,0.1,0.8-0.2,1C153.3,110.8,150.4,112.2,146.7,112.2z M138.3,97.4H155c-0.7-7.2-4.9-8.7-8.3-8.7
		C143.6,88.7,138.9,91,138.3,97.4z"/>
	<path id="XMLID_58_" class="st4" d="M110,86.1h-6c-0.3,0-0.5,0.2-0.5,0.5v1.8c0,0.3,0.2,0.5,0.5,0.5h3.9v22.5
		c0,0.4,0.3,0.7,0.7,0.7h1.4c0.4,0,0.7-0.3,0.7-0.7V86.8C110.7,86.4,110.4,86.1,110,86.1z"/>
	<path id="XMLID_8_" class="st4" d="M206.9,95.6c0-1.9,0-4-1.6-6.3c-3.1-4.4-9.2-5.4-17.1-2.9c-0.5,0.1-0.7,0.6-0.6,1.1l1.5,4.3
		c0.2,0.4,0.6,0.7,1.1,0.6c2.6-0.8,8.1-2.1,10,0.6c0.4,0.5,0.4,1.1,0.4,2.6c-0.9-0.1-2-0.2-3.2-0.2c-1,0-2.1,0.1-3.3,0.4
		c-2.7,0.6-5.1,1.9-6.5,4.3c-0.4,0.7-0.7,1.4-0.9,2.2c-0.6,2.6,0.1,5.6,2,7.5c0.3,0.3,0.5,0.5,0.8,0.7c1.3,1,2.7,1.6,4,1.9
		c3.7,1,7.5,0.6,11.2,0c1.1-0.2,1.7-0.3,1.7-0.4c0.2,0,0.4-0.2,0.4-0.4C207,109.5,206.9,95.6,206.9,95.6z M200,107.2
		c-0.5,0-1,0-1.1,0.1c-0.6,0-1.2,0-1.8,0c-0.8-0.1-1.6-0.2-2.3-0.4c-0.7-0.2-1.5-0.5-2-1.1c-0.4-0.5-0.6-1.1-0.6-1.7
		c0-0.5,0.1-1,0.4-1.4c0.3-0.5,0.8-0.9,1.3-1.1c1.2-0.5,2.5-0.7,3.7-0.8c1.2,0,2.3,0.1,3.1,0.2c0,2.1,0,6.2,0,6.2
		S200.3,107.1,200,107.2z"/>
	<path id="XMLID_7_" class="st4" d="M212,105.4c0.1-0.5,0.6-0.7,1.1-0.6c0.7,0.2,1.3,0.4,2,0.6H215c2.1,0.6,5.4,1.8,7.1-0.1
		c0.3-0.3,0.5-0.6,0.5-1c0.1-1.1-1.2-1.4-2-1.7c-1.7-0.6-3.4-1.2-5.1-1.8c-1.3-0.5-2.7-1.2-3.7-2.1c-2.2-2-2.9-5.4-1.8-8.1
		c1.5-3.5,5.1-5.4,8.8-5.4c2.8,0,5.5,0.9,8.2,1.7c0.5,0.1,0.7,0.6,0.6,1.1l-1.1,3.8c-0.1,0.5-0.6,0.7-1.1,0.6
		c-1.5-0.4-3-0.9-4.6-1.2c-1.4-0.2-3.2-0.4-4.4,0.6c-0.6,0.5-1.1,1.3-0.8,2c0.2,0.6,0.9,0.9,1.5,1.1c0.7,0.3,1.4,0.5,2.2,0.8
		c1.5,0.5,2.9,0.9,4.3,1.5c1.4,0.6,2.8,1.4,3.7,2.6c1.4,1.7,1.9,4.1,1.4,6.3c-1,4.3-5.1,6.8-9.3,6.8h-0.1c-2.8,0-5.5-0.8-8.2-1.6
		c-0.5-0.1-0.7-0.6-0.6-1.1L212,105.4z"/>
	<path id="XMLID_5_" class="st4" d="M183.1,86.1h-4.8c-0.5,0-0.9,0.4-0.9,0.9v9h-9.2v-9c0-0.5-0.4-0.9-0.9-0.9h-4.8
		c-0.5,0-0.9,0.4-0.9,0.9v24.3c0,0.5,0.4,0.9,0.9,0.9h4.8c0.5,0,0.9-0.4,0.9-0.9v-10h9.2v10c0,0.5,0.4,0.9,0.9,0.9h4.8
		c0.5,0,0.9-0.4,0.9-0.9V87C184,86.5,183.6,86.1,183.1,86.1z"/>
	<path class="st4" d="M90.6,86.7c-2.8,0-5.8,0.9-7.9,3.1v-3c0-0.4-0.3-0.7-0.7-0.7h-1.4c-0.4,0-0.7,0.3-0.7,0.7v24.6
		c0,0.4,0.3,0.7,0.7,0.7H82c0.4,0,0.7-0.3,0.7-0.7V97.8l0,0c0-7.7,6.1-8.3,7.9-8.3c2,0,6.5,0.8,6.5,8.3v3.9l0,0v5.3l0,0v4.3
		c0,0.4,0.3,0.7,0.7,0.7h1.4c0.4,0,0.7-0.3,0.7-0.7V107v-0.3v-9C100,87.2,92.2,86.7,90.6,86.7z"/>
	<path id="XMLID_4_" class="st4" d="M253.1,86.1h-4.8c-0.5,0-0.9,0.4-0.9,0.9v9h-9.2v-9c0-0.5-0.4-0.9-0.9-0.9h-4.8
		c-0.5,0-0.9,0.4-0.9,0.9v24.3c0,0.5,0.4,0.9,0.9,0.9h4.8c0.5,0,0.9-0.4,0.9-0.9v-10h9.2v10c0,0.5,0.4,0.9,0.9,0.9h4.8
		c0.5,0,0.9-0.4,0.9-0.9V87C254,86.5,253.6,86.1,253.1,86.1z"/>
</g>
</svg>
